HIERARCHY
ROOT Hips
{
	OFFSET 0.000000 0.000000 0.000000
	CHANNELS 6 Xposition Yposition Zposition Zrotation Yrotation Xrotation 
	JOINT LowerBack
	{
		OFFSET 0.000000 0.000000 0.000000
		CHANNELS 3 Zrotation Yrotation Xrotation
		JOINT Spine
		{
			OFFSET 0.028270 2.035590 -0.193380
			CHANNELS 3 Zrotation Yrotation Xrotation
			JOINT Spine1
			{
				OFFSET 0.056720 2.048850 -0.042750
				CHANNELS 3 Zrotation Yrotation Xrotation
				JOINT Neck
				{
					OFFSET 0.000000 0.000000 0.000000
					CHANNELS 3 Zrotation Yrotation Xrotation
					JOINT Neck1
					{
						OFFSET -0.054170 1.746240 0.172020
						CHANNELS 3 Zrotation Yrotation Xrotation
						JOINT Head
						{
							OFFSET 0.104070 1.761360 -0.123970
							CHANNELS 3 Zrotation Yrotation Xrotation
							End Site
							{
								OFFSET 0.000000 0.000000 0.000000
							}
						}
					}
				}
				JOINT LeftShoulder
				{
					OFFSET 0.000000 0.000000 0.000000
					CHANNELS 3 Zrotation Yrotation Xrotation
					JOINT LeftArm
					{
						OFFSET 3.362410 1.200890 -0.311210
						CHANNELS 3 Zrotation Yrotation Xrotation
						JOINT LeftForeArm
						{
							OFFSET 4.983000 -0.000000 -0.000000
							CHANNELS 3 Zrotation Yrotation Xrotation
							JOINT LeftHand
							{
								OFFSET 3.483560 -0.000000 -0.000000
								CHANNELS 3 Zrotation Yrotation Xrotation
								JOINT LeftFingerBase
								{
									OFFSET 0.000000 0.000000 0.000000
									CHANNELS 3 Zrotation Yrotation Xrotation
									JOINT LeftHandIndex1
									{
										OFFSET 0.715260 -0.000000 -0.000000
										CHANNELS 3 Zrotation Yrotation Xrotation
										End Site
										{
											OFFSET 0.000000 0.000000 0.000000
										}
									}
								}
								JOINT LThumb
								{
									OFFSET 0.000000 0.000000 0.000000
									CHANNELS 3 Zrotation Yrotation Xrotation
									End Site
									{
										OFFSET 0.000000 0.000000 0.000000
									}
								}
							}
						}
					}
				}
				JOINT RightShoulder
				{
					OFFSET 0.000000 0.000000 0.000000
					CHANNELS 3 Zrotation Yrotation Xrotation
					JOINT RightArm
					{
						OFFSET -3.136600 1.374050 -0.404650
						CHANNELS 3 Zrotation Yrotation Xrotation
						JOINT RightForeArm
						{
							OFFSET -5.241900 -0.000000 -0.000000
							CHANNELS 3 Zrotation Yrotation Xrotation
							JOINT RightHand
							{
								OFFSET -3.444170 -0.000000 -0.000000
								CHANNELS 3 Zrotation Yrotation Xrotation
								JOINT RightFingerBase
								{
									OFFSET 0.000000 0.000000 0.000000
									CHANNELS 3 Zrotation Yrotation Xrotation
									JOINT RightHandIndex1
									{
										OFFSET -0.622530 -0.000000 -0.000000
										CHANNELS 3 Zrotation Yrotation Xrotation
										End Site
										{
											OFFSET 0.000000 0.000000 0.000000
										}
									}
								}
								JOINT RThumb
								{
									OFFSET 0.000000 0.000000 0.000000
									CHANNELS 3 Zrotation Yrotation Xrotation
									End Site
									{
										OFFSET 0.000000 0.000000 0.000000
									}
								}
							}
						}
					}
				}
			}
		}
	}
}
}
MOTION
Frames: 13
Frame Time: 0.008333
4.199057 17.521027 0.815395 -171.229196 -85.691594 178.912996 -1.040979 -1.423799 -2.472802 -0.299067 -1.361418 -3.349618 -3.247226 -1.395608 -0.637095 5.055371 -11.745759 -9.217381 -1.078453 -0.057018 -0.434708 0.000000 0.000000 0.000000 14.410218 10.101465 1.045220 -42.936542 9.025689 16.936562 -179.000324 -61.421083 -179.993899 -0.397795 4.877100 -0.016693 0.033874 0.261889 -0.000000 0.000000 0.000000 0.000000 0.000000 0.000000 0.000000 -1.661985 -3.900696 0.736481 28.215965 30.793105 11.168925 179.727269 71.132866 179.967335 -2.109543 13.298100 -0.259538 -0.016230 -0.828635 0.000000 0.000000 0.000000 0.000000 0.000000 0.000000 0.000000 
4.072728 17.170189 0.795940 -173.721768 -85.022583 -178.418931 -1.136988 -1.476802 -2.627542 -0.392089 -1.419823 -3.380038 -3.642599 -1.440660 -0.645681 5.913322 -11.305058 -9.479401 -1.357246 -0.074287 -0.519916 0.000000 0.000000 0.000000 12.758662 10.912114 1.223255 -43.926291 8.865169 17.189419 -178.863540 -62.860486 -179.995509 -0.321183 5.084513 -0.013131 0.013133 0.249711 -0.000000 0.000000 0.000000 0.000000 0.000000 0.000000 0.000000 0.189035 -3.348145 0.833713 30.896609 30.311930 12.375402 179.598543 71.709862 179.971234 -2.049509 13.629303 -0.259269 -0.004684 -0.832584 0.000000 0.000000 0.000000 0.000000 0.000000 0.000000 0.000000 
3.950196 16.821765 0.767927 -177.423401 -84.678334 -174.421114 -1.451523 -1.591294 -2.847304 -0.523818 -1.524527 -3.411795 -4.031261 -1.533673 -0.605238 6.781487 -11.052077 -9.769949 -1.605244 -0.088564 -0.613413 0.000000 0.000000 0.000000 11.208088 11.710515 1.379933 -45.011737 8.264670 17.346066 -178.768556 -64.690370 -179.996836 -0.299729 5.327966 -0.011892 -0.005258 0.238969 -0.000000 0.000000 0.000000 0.000000 0.000000 0.000000 0.000000 1.983560 -3.035468 0.898763 33.969175 29.682793 13.662227 179.477271 72.590075 179.976809 -1.851022 13.835862 -0.238201 0.004185 -0.828463 0.000000 0.000000 0.000000 0.000000 0.000000 0.000000 0.000000 
3.831698 16.482707 0.733085 178.045502 -84.659464 -169.518040 -1.892077 -1.763500 -3.087372 -0.673768 -1.676363 -3.440611 -4.417094 -1.675156 -0.538821 7.624711 -10.991562 -10.073492 -1.822651 -0.100184 -0.710299 0.000000 0.000000 0.000000 9.742926 12.406991 1.516037 -46.194339 7.332210 17.429696 -178.722101 -66.897635 -179.997914 -0.331824 5.609147 -0.013187 -0.020993 0.229355 -0.000000 0.000000 0.000000 0.000000 0.000000 0.000000 0.000000 3.683162 -2.958026 0.921011 37.454419 28.828374 15.007750 179.379207 73.825355 179.983234 -1.592405 13.884905 -0.206036 0.012142 -0.814845 0.000000 0.000000 0.000000 0.000000 0.000000 0.000000 0.000000 
3.716230 16.159962 0.692831 172.303572 -84.959479 -163.347585 -2.408477 -1.988595 -3.337715 -0.831560 -1.873177 -3.466958 -4.797889 -1.863070 -0.458495 8.422112 -11.086676 -10.378597 -2.010950 -0.109526 -0.806644 0.000000 0.000000 0.000000 8.428430 12.995885 1.633625 -47.549505 6.084209 17.519360 -178.733256 -69.559687 -179.998884 -0.395887 5.909820 -0.016312 -0.034695 0.221734 -0.000000 0.000000 0.000000 0.000000 0.000000 0.000000 0.000000 5.270066 -3.080358 0.876911 41.308944 27.621171 16.342610 179.327749 75.444356 179.989120 -1.385900 13.790847 -0.178674 0.020631 -0.791923 0.000000 0.000000 0.000000 0.000000 0.000000 0.000000 0.000000 
3.604077 15.860775 0.650668 165.429107 -85.504742 -156.030549 -2.853787 -2.245664 -3.554484 -0.970410 -2.104457 -3.491241 -5.177648 -2.086352 -0.397885 9.128235 -11.301468 -10.662865 -2.177329 -0.117634 -0.895536 0.000000 0.000000 0.000000 7.173525 13.407040 1.740115 -49.004205 4.702124 17.594908 -178.803388 -72.600000 -179.999911 -0.465383 6.227735 -0.020265 -0.047036 0.215057 -0.000000 0.000000 0.000000 0.000000 0.000000 0.000000 0.000000 6.722663 -3.350878 0.767121 45.434352 26.039664 17.554676 179.338173 77.496185 179.993392 -1.322126 13.563077 -0.168429 0.030575 -0.760619 0.000000 0.000000 0.000000 0.000000 0.000000 0.000000 0.000000 
3.495333 15.591139 0.609080 157.167368 -86.204564 -147.352727 -3.135102 -2.508553 -3.713572 -1.075566 -2.351892 -3.513819 -5.552612 -2.326748 -0.371839 9.722738 -11.574773 -10.912150 -2.330892 -0.125549 -0.972708 0.000000 0.000000 0.000000 5.956067 13.647344 1.839601 -50.539133 3.278833 17.659054 -178.935458 -75.997593 179.998820 -0.503505 6.546646 -0.022743 -0.058726 0.209076 -0.000000 0.000000 0.000000 0.000000 0.000000 0.000000 0.000000 8.058666 -3.703224 0.597216 49.656753 24.094647 18.494460 179.419215 80.003825 179.995022 -1.492900 13.242411 -0.186211 0.042127 -0.723134 0.000000 0.000000 0.000000 0.000000 0.000000 0.000000 0.000000 
3.389950 15.355716 0.569802 147.247078 -86.947682 -137.078838 -3.199856 -2.747516 -3.803379 -1.140108 -2.591433 -3.537427 -5.916003 -2.561309 -0.392738 10.199635 -11.841147 -11.109866 -2.483076 -0.134524 -1.033387 0.000000 0.000000 0.000000 4.753163 13.701270 1.931412 -52.115645 1.959489 17.671632 -179.128409 -79.677852 179.997235 -0.475278 6.851933 -0.021651 -0.069692 0.203167 -0.000000 0.000000 0.000000 0.000000 0.000000 0.000000 0.000000 9.319101 -4.065923 0.394834 53.774139 21.866586 19.019713 179.562376 82.966894 179.993631 -1.957193 12.882501 -0.237334 0.055085 -0.682239 0.000000 0.000000 0.000000 0.000000 0.000000 0.000000 0.000000 
3.287877 15.157269 0.533493 135.573492 -87.617434 -125.141656 -3.065252 -2.933726 -3.824975 -1.168225 -2.794513 -3.562531 -6.257010 -2.763500 -0.455310 10.575338 -12.047540 -11.251174 -2.642472 -0.145321 -1.076557 0.000000 0.000000 0.000000 3.580723 13.588243 2.009921 -53.716805 0.828366 17.594865 -179.376346 -83.584080 179.995298 -0.350273 7.126971 -0.014398 -0.079508 0.196999 -0.000000 0.000000 0.000000 0.000000 0.000000 0.000000 0.000000 10.558776 -4.385280 0.197249 57.596979 19.495900 19.036140 179.745865 86.361788 179.989545 -2.728449 12.550266 -0.321410 0.068976 -0.640538 0.000000 0.000000 0.000000 0.000000 0.000000 0.000000 0.000000 
3.189211 14.996823 0.500074 122.744816 -88.118659 -112.160381 -2.813821 -3.051326 -3.783635 -1.173772 -2.939337 -3.588135 -6.564971 -2.913732 -0.549587 10.876381 -12.156671 -11.335645 -2.813916 -0.158248 -1.102742 0.000000 0.000000 0.000000 2.472180 13.321828 2.069005 -55.327027 -0.051276 17.384909 -179.665602 -87.649681 179.993066 -0.109995 7.357996 0.000609 -0.087474 0.190304 -0.000000 0.000000 0.000000 0.000000 0.000000 0.000000 0.000000 11.821044 -4.625329 0.042842 60.991366 17.137380 18.525290 -0.056418 89.854354 -0.016245 -3.759309 12.310120 -0.432838 0.083078 -0.599832 0.000000 0.000000 0.000000 0.000000 0.000000 0.000000 0.000000 
3.093578 14.873672 0.469068 110.318228 -88.421402 -99.696207 -2.547897 -3.109279 -3.684976 -1.173454 -3.025990 -3.611455 -6.832410 -3.012717 -0.663919 11.128822 -12.145206 -11.365758 -2.997869 -0.173178 -1.113453 0.000000 0.000000 0.000000 1.470725 12.911014 2.108103 -56.930471 -0.649306 17.009046 0.023471 -88.189028 -0.009086 0.248857 7.534809 0.023867 -0.093078 0.182978 0.000000 0.000000 0.000000 0.000000 0.000000 0.000000 0.000000 13.121038 -4.769074 -0.042848 63.892443 14.916260 17.540621 0.136426 85.737734 -0.022438 -4.949638 12.207959 -0.562925 0.096268 -0.560822 -0.000000 0.000000 0.000000 0.000000 0.000000 0.000000 0.000000 
3.000591 14.785636 0.439770 100.195086 -88.568937 -89.645706 -2.324736 -3.131726 -3.533993 -1.176591 -3.072811 -3.626822 -7.056057 -3.076758 -0.778542 11.353426 -12.015999 -11.355541 -3.189099 -0.189352 -1.113432 0.000000 0.000000 0.000000 0.616320 12.402302 2.132223 -58.510493 -1.015064 16.477865 -0.288911 -83.967205 -0.011267 0.715587 7.650947 0.054881 -0.096402 0.175163 0.000000 0.000000 0.000000 0.000000 0.000000 0.000000 0.000000 14.444381 -4.826638 -0.054049 66.289309 12.935868 16.201588 0.317073 81.342795 -0.027804 -6.175845 12.257203 -0.702465 0.107348 -0.523261 -0.000000 0.000000 0.000000 0.000000 0.000000 0.000000 0.000000 
2.909724 14.729560 0.411481 93.689345 -88.631795 -83.310755 -2.148655 -3.137242 -3.339890 -1.184574 -3.097311 -3.635207 -7.238363 -3.120922 -0.895012 11.553410 -11.748748 -11.300794 -3.382717 -0.206353 -1.101843 0.000000 0.000000 0.000000 -0.063341 11.793629 2.151705 -60.047276 -1.132273 15.785236 -0.583934 -79.754066 -0.013193 1.259500 7.708108 0.091162 -0.097325 0.166861 0.000000 0.000000 0.000000 0.000000 0.000000 0.000000 0.000000 15.741429 -4.772096 0.004072 68.216350 11.199037 14.625563 0.485873 76.744047 -0.031467 -7.305774 12.428375 -0.839159 0.114963 -0.486669 -0.000000 0.000000 0.000000 0.000000 0.000000 0.000000 0.000000 
